<svg width="143" height="25" viewBox="0 0 143 25" fill="none" xmlns="http://www.w3.org/2000/svg">
<g clip-path="url(#clip0_546_1938)">
<path fill-rule="evenodd" clip-rule="evenodd" d="M17.7143 1C17.7143 6.14285 15.5714 9.57142 11.2868 10H24.9999V15.9999C20.0294 15.9999 16 20.0294 16 24.9999H8.28568C8.28568 19.8571 11.2857 16.4285 14.7132 15.9999H1V10C5.97056 10 10 5.97055 10 1L17.7143 1Z" fill="#862FE7"/>
<path fill-rule="evenodd" clip-rule="evenodd" d="M97.2396 20.6263V11.983V1.96002H101.175V6.22957C101.175 6.57669 101.158 6.94117 101.123 7.32301C101.105 7.70485 101.062 8.09533 100.993 8.49451C100.94 8.87635 100.879 9.26683 100.81 9.66607C100.758 10.0652 100.688 10.4557 100.601 10.8376H101.201C101.444 9.96979 101.748 9.22345 102.113 8.59867C102.495 7.95649 102.982 7.46185 103.572 7.11475C104.163 6.75025 104.91 6.56802 105.814 6.56802C107.429 6.56802 108.637 7.13209 109.436 8.26021C110.235 9.37099 110.635 11.0979 110.635 13.441V20.6263H106.699V14.0657C106.699 12.6252 106.491 11.5578 106.074 10.8636C105.657 10.152 105.023 9.79621 104.171 9.79621C103.494 9.79621 102.938 10.0045 102.504 10.421C102.07 10.8376 101.74 11.3843 101.513 12.0611C101.288 12.7381 101.166 13.5104 101.149 14.3782V20.6263H97.2396ZM136.945 20.9908C136.076 20.9908 135.32 20.8259 134.678 20.4961C134.035 20.149 133.505 19.6544 133.088 19.0122C132.689 18.3527 132.419 17.5543 132.28 16.6171H131.759L131.733 20.6263H128.502V13.8835V1.96002H132.411V6.46388C132.411 6.88042 132.385 7.32301 132.332 7.79161C132.28 8.26021 132.202 8.75485 132.098 9.27553C132.011 9.77887 131.915 10.2995 131.812 10.8376H132.385C132.628 9.93505 132.941 9.17143 133.323 8.54659C133.723 7.92175 134.226 7.44451 134.834 7.11475C135.442 6.78496 136.154 6.62008 136.971 6.62008C138.118 6.62008 139.108 6.91513 139.942 7.50523C140.776 8.09533 141.427 8.92843 141.896 10.0045C142.366 11.0806 142.6 12.3649 142.6 13.8575C142.6 15.3154 142.366 16.5737 141.896 17.6324C141.445 18.6911 140.793 19.5155 139.942 20.1056C139.108 20.6957 138.109 20.9908 136.945 20.9908ZM135.512 17.7886C136.12 17.7886 136.641 17.6237 137.075 17.294C137.527 16.9642 137.875 16.4956 138.118 15.8881C138.361 15.2807 138.482 14.5691 138.482 13.7534C138.482 12.9376 138.361 12.2347 138.118 11.6446C137.892 11.0545 137.562 10.5946 137.128 10.2648C136.711 9.91771 136.207 9.74413 135.616 9.74413C135.199 9.74413 134.825 9.82225 134.495 9.97843C134.165 10.1347 133.87 10.3429 133.609 10.6033C133.349 10.8636 133.132 11.1586 132.958 11.4884C132.784 11.8008 132.645 12.1393 132.541 12.5037C132.454 12.8509 132.411 13.1893 132.411 13.519V14.0137C132.411 14.4129 132.472 14.8381 132.593 15.2893C132.715 15.7232 132.897 16.1311 133.141 16.513C133.401 16.8947 133.723 17.2072 134.105 17.4502C134.504 17.6758 134.973 17.7886 135.512 17.7886ZM83.5884 20.5482C84.1788 20.8432 84.8562 20.9908 85.6212 20.9908C86.4372 20.9908 87.1668 20.8345 87.81 20.5222C88.47 20.2097 89.0262 19.7845 89.4774 19.2465C89.9466 18.6911 90.303 18.0836 90.546 17.4241H91.041C91.0584 18.0142 91.1022 18.587 91.1718 19.1423C91.2408 19.6978 91.3104 20.1924 91.38 20.6263H94.8456C94.7766 20.0015 94.7154 19.3766 94.6632 18.7519C94.629 18.1097 94.5942 17.4762 94.5594 16.8514C94.542 16.2092 94.533 15.5844 94.533 14.9769V12.738C94.533 11.3149 94.3248 10.152 93.9078 9.24949C93.4908 8.32963 92.8482 7.65277 91.9794 7.21885C91.128 6.78495 90.0252 6.568 88.6698 6.568C87.8358 6.568 87.054 6.65478 86.3244 6.82834C85.6122 6.98454 84.9696 7.24489 84.396 7.60933C83.8404 7.95649 83.3622 8.39905 82.9626 8.93707C82.563 9.45775 82.2594 10.0826 82.0506 10.8115L85.5168 11.8529C85.6554 11.3495 85.8642 10.9243 86.142 10.5772C86.4372 10.2301 86.7936 9.96979 87.2106 9.79621C87.6276 9.62263 88.0794 9.53587 88.5654 9.53587C89.3124 9.53587 89.8512 9.70945 90.1812 10.0565C90.5112 10.3863 90.6762 10.7768 90.6762 11.228C90.6762 11.5752 90.5898 11.8355 90.4158 12.0091C90.2418 12.1826 89.9814 12.3128 89.634 12.3996C89.2866 12.4864 88.8438 12.5731 88.305 12.6599C87.2628 12.8161 86.3334 12.9983 85.5168 13.2066C84.7002 13.3975 84.0054 13.6492 83.4318 13.9616C82.8588 14.274 82.4244 14.6819 82.1292 15.1852C81.8334 15.6885 81.6858 16.322 81.6858 17.0857C81.6858 17.9361 81.8508 18.6477 82.1808 19.2205C82.5288 19.7932 82.9974 20.2358 83.5884 20.5482ZM88.305 18.0229C87.975 18.127 87.6534 18.1791 87.3408 18.1791C86.7846 18.1791 86.3334 18.0316 85.986 17.7365C85.6554 17.4241 85.4904 17.0075 85.4904 16.4869C85.4904 16.0877 85.5864 15.7753 85.7772 15.5497C85.9686 15.3241 86.229 15.1505 86.559 15.029C86.889 14.8901 87.2538 14.786 87.6534 14.7166C88.0704 14.6298 88.4964 14.5517 88.9302 14.4823C89.3646 14.4128 89.7816 14.3174 90.1812 14.1959C90.369 14.1334 90.5466 14.062 90.7134 13.9817L90.7548 15.6538C90.5982 16.053 90.39 16.4088 90.129 16.7212C89.8686 17.0336 89.5818 17.3026 89.2692 17.5282C88.9566 17.7365 88.635 17.9014 88.305 18.0229ZM65.9766 25V13.9096V6.93247H69.2082L69.234 10.7594L69.7032 10.8115C69.8598 9.87433 70.1376 9.09331 70.5372 8.46847C70.9368 7.82629 71.4492 7.34899 72.075 7.03663C72.7002 6.7242 73.4214 6.568 74.2374 6.568C75.4536 6.568 76.4964 6.86305 77.3646 7.45315C78.2334 8.04325 78.9024 8.88499 79.3716 9.97843C79.8402 11.0719 80.0748 12.3649 80.0748 13.8575C80.0748 15.2286 79.8666 16.4522 79.4496 17.5282C79.0326 18.587 78.4074 19.4287 77.5734 20.0536C76.7568 20.6783 75.723 20.9908 74.472 20.9908C73.6212 20.9908 72.891 20.8345 72.2832 20.5222C71.6928 20.1924 71.1972 19.7324 70.7976 19.1423C70.398 18.5349 70.068 17.806 69.8076 16.9555H69.2862C69.3906 17.4415 69.486 17.9275 69.573 18.4134C69.6774 18.882 69.7554 19.3506 69.8076 19.8192C69.8598 20.2705 69.8856 20.7044 69.8856 21.1209V25H65.9766ZM73.0908 17.8667C73.6818 17.8667 74.1858 17.7018 74.6022 17.372C75.0366 17.0423 75.3672 16.5737 75.5928 15.9662C75.8358 15.3587 75.9576 14.6645 75.9576 13.8835C75.9576 13.0331 75.8358 12.3128 75.5928 11.7227C75.3498 11.1152 75.0018 10.6466 74.5506 10.3169C74.1162 9.96979 73.5948 9.79621 72.987 9.79621C72.4482 9.79621 71.979 9.91771 71.5794 10.1606C71.1972 10.4036 70.8762 10.7161 70.6152 11.0979C70.3722 11.4797 70.1898 11.8963 70.068 12.3475C69.9468 12.7814 69.8856 13.198 69.8856 13.5971V14.1178C69.8856 14.4649 69.9294 14.812 70.0158 15.1592C70.1202 15.5063 70.2594 15.8447 70.4328 16.1745C70.6068 16.4869 70.824 16.7732 71.0844 17.0336C71.3448 17.2939 71.6406 17.5022 71.9706 17.6584C72.3006 17.7973 72.6744 17.8667 73.0908 17.8667ZM51.6569 19.3506C52.4734 20.444 53.6809 20.9908 55.2792 20.9908C56.1478 20.9908 56.8774 20.8346 57.4681 20.5222C58.2646 20.1009 59.5858 18.7707 59.9177 16.8628H60.4128L60.4389 20.6263H63.5922V15.055V6.93248H59.6832V13.0244C59.6658 13.7013 59.5876 14.3261 59.4486 14.8988C59.327 15.4716 59.1446 15.9749 58.9014 16.4088C58.6582 16.8427 58.3542 17.1811 57.9893 17.4241C57.6418 17.6497 57.2336 17.7626 56.7645 17.7626C55.948 17.7626 55.3399 17.4415 54.9404 16.7993C54.5582 16.1572 54.3671 15.1765 54.3671 13.8575V6.93248H50.4321V14.3782C50.4321 16.5997 50.8404 18.2572 51.6569 19.3506ZM117.825 20.9908C116.227 20.9908 115.019 20.444 114.203 19.3506C113.386 18.2572 112.978 16.5997 112.978 14.3782V6.93248H116.913V13.8575C116.913 15.1765 117.104 16.1572 117.486 16.7993C117.886 17.4415 118.494 17.7626 119.31 17.7626C119.779 17.7626 120.188 17.6497 120.535 17.4241C120.9 17.1811 121.204 16.8427 121.447 16.4088C121.69 15.9749 121.873 15.4716 121.994 14.8988C122.134 14.3261 122.212 13.7013 122.229 13.0244V6.93248H126.138V15.055V20.6263H122.984L122.959 16.8628H122.464C122.132 18.7707 120.81 20.1009 120.014 20.5222C119.423 20.8346 118.693 20.9908 117.825 20.9908ZM37.9426 20.6523C38.846 20.878 39.8536 20.9908 40.9655 20.9908C42.6159 20.9908 43.9971 20.7738 45.1089 20.3399C46.2208 19.906 47.0547 19.2986 47.6106 18.5176C48.1665 17.7365 48.4445 16.8254 48.4445 15.784C48.4445 14.8121 48.2361 14.005 47.8191 13.3628C47.4021 12.7207 46.8549 12.2174 46.1773 11.8529C45.4998 11.471 44.7702 11.1673 43.9884 10.9417C43.2066 10.6987 42.4422 10.4991 41.6952 10.3429C40.9134 10.1693 40.2011 9.98713 39.5583 9.79621C38.9329 9.60529 38.4291 9.37099 38.0469 9.09331C37.6647 8.79823 37.4736 8.42509 37.4736 7.97383C37.4736 7.60939 37.5952 7.28827 37.8384 7.01059C38.099 6.7329 38.4638 6.50727 38.9329 6.33372C39.4193 6.16015 40.0013 6.07338 40.6788 6.07338C41.2521 6.07338 41.7559 6.1428 42.1903 6.28165C42.642 6.42049 43.0242 6.62009 43.3369 6.88043C43.6496 7.14079 43.8841 7.47055 44.0405 7.86973C44.2142 8.26891 44.3011 8.72881 44.3011 9.24949H48.0546C47.9345 5.75071 45.5259 4.16423 44.4835 3.73033C43.4411 3.29643 42.1816 3.07948 40.7049 3.07948C39.2282 3.07948 37.9687 3.30511 36.9263 3.75636C35.9013 4.19026 35.1195 4.79772 34.581 5.57874C34.0424 6.34239 33.7731 7.25359 33.7731 8.31229C33.7731 9.23215 33.9729 10.0045 34.3725 10.6293C34.7721 11.2367 35.3019 11.7314 35.9621 12.1132C36.6397 12.4951 37.3867 12.8075 38.2032 13.0504C39.0371 13.2934 39.8797 13.5104 40.731 13.7013C41.5128 13.8748 42.1903 14.0571 42.7636 14.248C43.3543 14.4389 43.8147 14.6732 44.1447 14.9509C44.4922 15.2113 44.6659 15.5497 44.6659 15.9662C44.6659 16.3307 44.5356 16.6691 44.275 16.9816C44.0144 17.2766 43.6236 17.5196 43.1023 17.7105C42.5812 17.9014 41.9384 17.9969 41.1739 17.9969C40.3748 17.9969 39.6538 17.8754 39.0111 17.6324C38.3683 17.3894 37.8645 17.0162 37.4996 16.513C37.1348 16.0096 36.935 15.3761 36.9003 14.6125H33.1602C33.1602 15.8907 33.7471 17.3894 34.1119 18.049C34.4767 18.7085 34.9806 19.2552 35.6233 19.6891C36.2661 20.123 37.0392 20.444 37.9426 20.6523Z" fill="#111827"/>
</g>
<defs>
<clipPath id="clip0_546_1938">
<rect width="141.6" height="24" fill="white" transform="translate(1 1)"/>
</clipPath>
</defs>
</svg>
